<svg xmlns="http://www.w3.org/2000/svg" viewBox="0 0 985.34 951.36"><path d="M844.25 640.02l-101.51 25.5c-59.39 83.41-156.87 137.8-267.06 137.8a326.76 326.76 0 01-118.07-21.94l54.64-56.39a256.91 256.91 0 0063.41 8c117.55 0 216.61-78.87 247.35-186.55l139.24 45.38a402.13 402.13 0 01-18 48.2m106-132.81c.68-10.43 1.06-20.93 1.06-31.53a477.65 477.65 0 00-9.24-93.65l-66.82 37.21a407.23 407.23 0 014 56.44c0 8.52-.3 17-.82 25.35l-145.8-12.51c.21-4.24.33-8.51.33-12.82a256.13 256.13 0 00-52-155l-6.62 5.05a248 248 0 0137.29 70.89l-7.38 3.88a240.27 240.27 0 0112 75.14c0 3.83-.11 7.62-.29 11.4l-120-10.32a120.31 120.31 0 01-3.32 27.1l114.54 37.38c-28.55 101-121.34 175.06-231.5 175.06a239.84 239.84 0 01-49.89-5.25l72.1-74.34-170.28-20.34-13-161-142.52 143.63a326.71 326.71 0 01-24-123.3c0-106.81 51.14-201.68 130.25-261.48l9.38-36.84a350.9 350.9 0 01188-54.27c8.25 0 16.43.31 24.54.86h.15l25 42a311.38 311.38 0 01106.68 37.84l14-13.26a330.11 330.11 0 00-111.69-41.87l-25.36-42.54c-11-1-22.12-1.51-33.38-1.51a369.29 369.29 0 00-181.51 47.41l10.68-41.93a401.71 401.71 0 01170.85-37.9c12.4 0 24.66.59 36.77 1.68l37.2-68.13a478.52 478.52 0 00-74-5.74C212.94 0-.03 213-.03 475.68a473.49 473.49 0 0068.51 246.07L19.1 935.94l218.59-48.32a473.46 473.46 0 00238 63.75c214.52 0 395.85-142 455.16-337.15l33.46 10.92a509.41 509.41 0 0021-114.92l-35-3z" fill="#005bac"/></svg>
